inDegrees=yes
name=ik_S47_A04_T02
DataType=double
version=3
OpenSimVersion=4.3-2021-08-27-4bc7ad9
endheader
time	pelvis_tilt	pelvis_list	pelvis_rotation	pelvis_tx	pelvis_ty	pelvis_tz	hip_flexion_r	hip_adduction_r	hip_rotation_r	knee_angle_r	knee_angle_r_beta	ankle_angle_r	subtalar_angle_r	mtp_angle_r	hip_flexion_l	hip_adduction_l	hip_rotation_l	knee_angle_l	knee_angle_l_beta	ankle_angle_l	subtalar_angle_l	mtp_angle_l	lumbar_extension	lumbar_bending	lumbar_rotation	arm_flex_r	arm_add_r	arm_rot_r	elbow_flex_r	pro_sup_r	wrist_flex_r	wrist_dev_r	arm_flex_l	arm_add_l	arm_rot_l	elbow_flex_l	pro_sup_l	wrist_flex_l	wrist_dev_l
14.97999999999977	-2.574345461963593	-4.768901981421454	36.63050740789114	0	0.9399999999999999	0	45.97194739843722	-17.00397658083427	-3.920520051575064	54.70836296660407	0.9548410621433736	0	0	0	57.2095824076484	-16.1624101920357	8.531749997133184	59.97268018421973	1.046720730460194	0	0	0	0	0	0	33.34963115459804	-33.34963115459804	4.544812144533656	79.32683448579792	85.45518810933744	0	0	33.34963115459804	-33.34963115459804	4.544812144533656	79.32683448579792	85.4551881092523	0	0
14.99999999999977	-2.309801259829922	-4.599267608758369	36.41097372246887	0	0.9399999999999999	0	46.99367441795847	-17.12264663111724	-3.242037343742107	56.2347858631346	0.9814821674656601	0	0	0	58.17592912045762	-16.27570137638374	9.009909270897399	61.6127379308683	1.07534513806205	0	0	0	0	0	0	33.35225942453035	-33.35225942453035	4.545017169832428	79.32939876807146	85.45498308404885	0	0	33.35225942453035	-33.35225942453035	4.545017169832428	79.32939876807146	85.45498308396373	0	0
15.01999999999977	-1.932905526658321	-4.348715703908188	36.24195843695487	0	0.9399999999999999	0	47.8330230832101	-17.22914211051955	-2.709118278407697	57.54352831787025	1.00432403236143	0	0	0	58.98148563567052	-16.30905415492692	9.421722336247479	62.88297092881103	1.097514886143629	0	0	0	0	0	0	33.35494124822391	-33.35494124822391	4.545226495315034	79.33201684260392	85.45477375857666	0	0	33.35494124822391	-33.35494124822391	4.545226495315034	79.33201684260392	85.45477375849156	0	0
15.03999999999977	-1.529559206903896	-4.02544187763291	36.15847534747339	0	0.9399999999999999	0	48.57793316796051	-17.36931082787155	-2.318335239923605	59.02358908610253	1.03015596589668	0	0	0	59.64969823000159	-16.4256575771422	9.674713819043088	64.3985086086157	1.123966008594256	0	0	0	0	0	0	33.35763211232544	-33.35763211232544	4.545436384331337	79.33464194039469	85.45456386957086	0	0	33.35763211232544	-33.35763211232544	4.545436384331337	79.33464194039469	85.4545638694858	0	0
15.05999999999977	-1.124317669539825	-3.643659067774263	36.13573485970166	0	0.9399999999999999	0	49.23609883928168	-17.57297918622633	-2.036583626680383	60.30996636386334	1.052607484816448	0	0	0	60.17863868793937	-16.32656358031139	9.709781923205421	65.59905374341449	1.144919474015294	0	0	0	0	0	0	33.3599886144713	-33.3599886144713	4.545620181281454	79.33694069585123	85.45438007262982	0	0	33.3599886144713	-33.3599886144713	4.545620181281454	79.33694069585123	85.45438007254478	0	0
15.07999999999977	-0.6729210328581579	-3.214385032392899	36.08828752703627	0	0.9399999999999999	0	49.88442003277774	-17.77961006926681	-1.596231039852727	61.5516856743702	1.074279575170386	0	0	0	60.6010180282412	-16.22826873854703	9.805976985089623	66.77446048051044	1.165434191627742	0	0	0	0	0	0	33.36255651320951	-33.36255651320951	4.545820463363086	79.33944562522241	85.45417979055816	0	0	33.36255651320951	-33.36255651320951	4.545820463363086	79.33944562522241	85.45417979047313	0	0
15.09999999999977	-0.1604424835810743	-2.722855503019681	36.04803545081845	0	0.9399999999999999	0	50.42894879886491	-18.0032558116065	-1.167206630135153	62.69369680982417	1.094211429578497	0	0	0	61.00977563053775	-16.16795089305449	10.03535750655337	67.96920253412303	1.18628637417532	0	0	0	0	0	0	33.36540590408683	-33.36540590408683	4.546042727452928	79.34222548019963	85.45395752647937	0	0	33.36540590408683	-33.36540590408683	4.546042727452928	79.34222548019963	85.45395752639439	0	0
15.11999999999977	0.3741634661037665	-2.198445802083922	36.02254805709575	0	0.9399999999999999	0	49.7258462123869	-18.02206749374735	-0.9966741909828648	62.86493427001099	1.09720008706151	0	0	0	61.48592795242208	-16.18716009677017	10.40936105881234	69.23982992899191	1.20846300578182	0	0	0	0	0	0	33.36850429454073	-33.36850429454073	4.546284103303631	79.34524431742722	85.4537161506406	0	0	33.36850429454073	-33.36850429454073	4.546284103303631	79.34524431742722	85.45371615055573	0	0
15.13999999999977	0.9486334188441821	-1.646746335416494	36.0129382253557	0	0.9399999999999999	0	51.28283375034215	-18.54204450282186	-0.3672933991964745	65.07394237946393	1.135754551774719	0	0	0	61.79354388620848	-16.16658893003417	10.58030229043592	70.34121796221854	1.22768585330369	0	0	0	0	0	0	33.39110930512319	-33.39110930512319	4.547785431245842	79.36398771364077	85.45221482277101	0	0	33.39110930512319	-33.39110930512319	4.547785431245842	79.36398771364077	85.45221482268637	0	0
15.15999999999977	1.604665598047552	-1.098442841399504	35.99728851837769	0	0.9399999999999999	0	51.57988048310426	-18.76372911792435	-0.05152758529084805	66.13541060059282	1.154280667138705	0	0	0	61.83477256204312	-16.10406537447567	10.55954904356605	71.13558907676821	1.241550244735319	0	0	0	0	0	0	33.39365193411186	-33.39365193411186	4.547983367316697	79.36646319615274	85.45201688670997	0	0	33.39365193411186	-33.39365193411186	4.547983367316697	79.36646319615274	85.45201688662542	0	0
15.17999999999977	2.286320633549216	-0.5450227086082334	35.96726028373836	0	0.9399999999999999	0	51.76988081607921	-18.89823762175586	0.1799554781103007	66.9557157023915	1.168597692036	0	0	0	61.88836666919924	-16.03192603716727	10.65918346646314	71.9674653893528	1.256069225359269	0	0	0	0	0	0	33.39599371731813	-33.39599371731813	4.548165604274383	79.36874232474393	85.45183464976134	0	0	33.39599371731813	-33.39599371731813	4.548165604274383	79.36874232474393	85.45183464967678	0	0
15.19999999999976	3.000849977267676	0.03925121350373995	35.93870044933379	0	0.9399999999999999	0	51.88142761822983	-18.92054218349017	0.2930596737903732	67.85044270407371	1.184213624121851	0	0	0	61.94655210251024	-15.97455353694466	10.81223690756393	72.84072901656198	1.271310550891978	0	0	0	0	0	0	33.39881373514883	-33.39881373514883	4.548385117006449	79.37148763987567	85.45161513704015	0	0	33.39881373514883	-33.39881373514883	4.548385117006449	79.37148763987567	85.4516151369556	0	0
15.21999999999976	3.798384150430457	0.6926200133401249	35.87355078925388	0	0.9399999999999999	0	51.89154800976437	-19.04634647867798	0.6658358174812731	68.59797022385872	1.197260440591366	0	0	0	61.84807411596622	-15.93203061913415	10.98294965571041	73.56517019692826	1.283954434726404	0	0	0	0	0	0	33.40079772651779	-33.40079772651779	4.548539324700795	79.37341619062201	85.45146092935343	0	0	33.40079772651779	-33.40079772651779	4.548539324700795	79.37341619062201	85.45146092926896	0	0
15.23999999999976	4.674532513309107	1.368915273420078	35.79388385141931	0	0.9399999999999999	0	51.92145111158772	-19.2147404613348	1.241631328545257	69.44572485482472	1.212056550150752	0	0	0	61.80790351600749	-15.91232236388046	11.29365852940028	74.51222315459948	1.300483627028517	0	0	0	0	0	0	33.40345639633132	-33.40345639633132	4.548746084548701	79.37600197740171	85.45125416951576	0	0	33.40345639633132	-33.40345639633132	4.548746084548701	79.37600197740171	85.45125416943137	0	0
15.25999999999976	5.645026880842866	2.090310929500116	35.70087219451701	0	0.9399999999999999	0	50.73192941649312	-19.18029638160912	1.299429127091346	69.36699504293227	1.210682455713753	0	0	0	61.61356949418536	-15.84445079655183	11.63088551742388	75.35284496696831	1.315155245418435	0	0	0	0	0	0	33.40670106792533	-33.40670106792533	4.548998275964841	79.37915591485759	85.45100197811222	0	0	33.40670106792533	-33.40670106792533	4.548998275964841	79.37915591485759	85.45100197802786	0	0
15.27999999999976	6.811016456620617	2.908906297482472	35.56321399642789	0	0.9399999999999999	0	50.36271924912846	-19.17188043480244	1.834960953288709	70.12314946288234	1.22387983999539	0	0	0	60.99747325349929	-15.73106193240845	11.71903014573759	75.96722424783289	1.325878186725557	0	0	0	0	0	0	33.41016850428053	-33.41016850428053	4.549267939522849	79.38252837097428	85.45073231456756	0	0	33.41016850428053	-33.41016850428053	4.549267939522849	79.38252837097428	85.45073231448325	0	0
15.29999999999976	8.036999948842055	3.741784466351867	35.39572646032198	0	0.9399999999999999	0	50.89349899779343	-19.28127733629069	2.930672159614556	71.74059883163605	1.252109656964446	0	0	0	60.32405529834652	-15.63031504037951	11.90434339778674	76.5806336221074	1.336584199969245	0	0	0	0	0	0	33.43258325581012	-33.43258325581012	4.550758762999169	79.40114083625339	85.44924149116336	0	0	33.43258325581012	-33.43258325581012	4.550758762999169	79.40114083625339	85.44924149107933	0	0
15.31999999999976	8.682707573118408	4.147574743917016	35.3064292853423	0	0.9399999999999999	0	50.8698523929874	-19.26827035236664	3.172199809481798	72.18409440992978	1.259850115023708	0	0	0	60.19980484486635	-15.5691972804675	12.18286596218243	76.98741942721485	1.343683951618746	0	0	0	0	0	0	33.43572070941392	-33.43572070941392	4.551002376777962	79.40418740541301	85.44899787739664	0	0	33.43572070941392	-33.43572070941392	4.551002376777962	79.40418740541301	85.44899787731262	0	0
15.33999999999976	10.16606559601176	5.147650020019767	35.03198272380742	0	0.9399999999999999	0	49.56480438673656	-19.06074505263556	3.078786516756968	72.388107868897	1.263410821601068	0	0	0	58.85496354665521	-15.6415296036413	12.24381821242716	77.21438699396509	1.347645282953778	0	0	0	0	0	0	33.43669661243792	-33.43669661243792	4.551077418396815	79.4051257619909	85.44892283578152	0	0	33.43669661243792	-33.43669661243792	4.551077418396815	79.4051257619909	85.4489228356975	0	0
15.35999999999976	11.26118379829643	5.820764918126289	34.83612079727527	0	0.9399999999999999	0	48.27668337667271	-18.95852459750146	2.986570952295716	72.02243315204714	1.25702859380074	0	0	0	57.94828204519236	-15.72864615887352	12.25948678800983	77.36669792693192	1.350303610220833	0	0	0	0	0	0	33.44000144154207	-33.44000144154207	4.55133343416336	79.40832734034201	85.44866682002767	0	0	33.44000144154207	-33.44000144154207	4.55133343416336	79.40832734034201	85.44866681994365	0	0
